<?xml version="1.0" encoding="UTF-8"?>
<svg xmlns="http://www.w3.org/2000/svg" xmlns:xlink="http://www.w3.org/1999/xlink" width="200px" height="200px" viewBox="0 0 200 200" version="1.1">
<g id="surface1">
<path style=" stroke:none;fill-rule:nonzero;fill:rgb(97.647059%,47.843137%,65.098039%);fill-opacity:1;" d="M 91.664062 43.203125 C 87.359375 43.472656 83.40625 45.5 80.742188 48.851562 C 79.28125 50.707031 78.3125 52.722656 77.777344 55.09375 C 77.417969 56.664062 77.382812 62.714844 77.71875 64.117188 C 78.265625 66.441406 79.175781 68.402344 80.550781 70.164062 C 82.621094 72.804688 85.773438 74.785156 89.039062 75.558594 C 89.8125 75.757812 90.175781 75.78125 93.132812 75.78125 C 96.089844 75.78125 96.453125 75.757812 97.226562 75.558594 C 100.492188 74.785156 103.644531 72.804688 105.714844 70.164062 C 107.089844 68.402344 108 66.441406 108.546875 64.117188 C 108.882812 62.714844 108.847656 56.664062 108.488281 55.09375 C 108.042969 53.09375 107.3125 51.4375 106.125 49.746094 C 104.773438 47.835938 102.6875 46.109375 100.582031 45.121094 C 97.878906 43.855469 94.84375 43.027344 91.664062 43.203125 Z M 91.664062 43.203125 "/>
<path style=" stroke:none;fill-rule:nonzero;fill:rgb(25.490196%,25.882353%,32.941176%);fill-opacity:1;" d="M 137.746094 43.457031 C 136.023438 43.664062 134.375 44.292969 132.917969 45.347656 C 131.546875 46.335938 130.351562 47.753906 129.492188 49.367188 C 128.527344 51.183594 128.011719 53.183594 128.011719 55.289062 C 128.011719 57.429688 128.511719 59.398438 129.484375 61.226562 C 131.546875 65.328125 135.714844 68.28125 140.234375 68.761719 C 144.742188 69.230469 149.171875 67.199219 151.960938 63.304688 C 152.65625 62.316406 153.210938 61.105469 153.53125 59.984375 C 154.066406 58.113281 154.128906 56.101562 153.699219 54.179688 C 153.050781 51.207031 151.019531 48.410156 148.363281 46.714844 C 146.085938 45.246094 142.574219 43.945312 140.347656 43.488281 C 139.449219 43.308594 138.554688 43.359375 137.746094 43.457031 Z M 137.746094 43.457031 "/>
<path style=" stroke:none;fill-rule:nonzero;fill:rgb(37.647059%,75.686275%,92.941176%);fill-opacity:1;" d="M 48.609375 68.859375 C 44.964844 69.058594 41.402344 70.488281 38.851562 72.929688 C 37.40625 74.3125 36.453125 75.734375 35.753906 77.429688 C 34.988281 79.308594 34.667969 81.230469 34.847656 83.113281 C 35.007812 84.703125 35.492188 86.242188 36.28125 87.683594 C 37.347656 89.652344 38.871094 91.273438 40.753906 92.464844 C 43.320312 94.074219 46.824219 94.742188 49.953125 94.25 C 53.117188 93.761719 55.992188 92.097656 58.09375 89.542969 C 59.273438 88.105469 60.105469 86.628906 60.652344 84.90625 C 61.058594 83.628906 61.160156 82.96875 61.210938 81.246094 C 61.304688 77.90625 60.285156 74.808594 58.3125 72.292969 C 57.25 70.976562 55.878906 69.804688 54.414062 69.007812 C 52.414062 67.914062 50.511719 68.753906 48.609375 68.859375 Z M 48.609375 68.859375 "/>
<path style=" stroke:none;fill-rule:nonzero;fill:rgb(0%,68.627451%,94.117647%);fill-opacity:1;" d="M 92.28125 91.027344 C 87.46875 91.203125 83.042969 93.414062 80.035156 97.109375 C 78.28125 99.261719 77.125 101.816406 76.628906 104.449219 C 76.273438 106.335938 76.289062 109.40625 76.667969 111.207031 C 77.609375 115.832031 80.542969 119.84375 84.714844 122.160156 C 86.457031 123.144531 88.21875 123.769531 90.15625 124.089844 C 91.359375 124.28125 93.925781 124.261719 95.148438 124.054688 C 99.027344 123.429688 102.441406 121.453125 104.929688 118.339844 C 109.035156 112.941406 109.230469 105.523438 105.40625 99.847656 C 103.261719 96.628906 100.175781 94.207031 96.628906 92.980469 C 95.269531 92.5 93.863281 91.089844 92.28125 91.027344 Z M 92.28125 91.027344 "/>
<path style=" stroke:none;fill-rule:nonzero;fill:rgb(25.490196%,25.882353%,32.941176%);fill-opacity:1;" d="M 146.730469 108.820312 C 146.105469 108.957031 145.265625 109.191406 144.859375 109.328125 C 141.980469 110.355469 139.769531 112.28125 138.472656 114.835938 C 137.480469 116.8125 137.113281 119.101562 137.433594 121.195312 C 137.582031 122.09375 137.804688 122.839844 138.207031 123.769531 C 139.261719 126.074219 141.070312 127.925781 143.316406 129.113281 C 144.972656 129.980469 146.722656 130.40625 148.546875 130.355469 C 151.152344 130.300781 153.472656 129.460938 155.511719 127.859375 C 157.34375 126.402344 158.601562 124.550781 159.277344 122.34375 C 159.757812 120.757812 159.757812 118.582031 159.277344 117.003906 C 158.589844 114.726562 157.265625 112.8125 155.355469 111.339844 C 153.054688 109.582031 150.21875 108.511719 147.261719 108.835938 C 146.972656 108.835938 146.960938 108.835938 146.730469 108.820312 Z M 146.730469 108.820312 "/>
<path style=" stroke:none;fill-rule:nonzero;fill:rgb(96.862745%,91.764706%,48.627451%);fill-opacity:1;" d="M 43.722656 123.386719 C 40.8125 123.675781 37.597656 125.0625 35.605469 127.039062 C 34.609375 128.023438 33.765625 129.210938 33.171875 130.492188 C 32.671875 131.535156 32.3125 132.710938 32.148438 133.90625 C 31.894531 135.730469 31.996094 137.429688 32.46875 139.214844 C 33.441406 142.808594 36.050781 145.855469 39.441406 147.324219 C 40.605469 147.851562 41.71875 148.183594 43.007812 148.371094 C 44.136719 148.535156 46.109375 148.480469 47.207031 148.257812 C 49.253906 147.835938 51.15625 146.929688 52.773438 145.570312 C 56.425781 142.421875 57.980469 137.445312 56.792969 132.945312 C 55.847656 129.378906 53.136719 126.414062 49.59375 124.925781 C 47.675781 124.132812 45.710938 123.71875 43.894531 123.71875 C 43.722656 123.71875 43.894531 123.386719 43.722656 123.386719 Z M 43.722656 123.386719 "/>
<path style=" stroke:none;fill-rule:nonzero;fill:rgb(98.039216%,44.313725%,48.235294%);fill-opacity:1;" d="M 90.886719 141.039062 C 83.789062 141.515625 77.527344 146.753906 76.007812 153.667969 C 74.945312 158.339844 75.976562 163.054688 78.882812 166.925781 C 80.089844 168.511719 81.527344 169.84375 83.234375 170.941406 C 86.695312 173.144531 90.695312 173.980469 94.589844 173.351562 C 98.96875 172.632812 102.828125 169.988281 105.148438 166.128906 C 106.28125 144.566406 99.570312 140.457031 90.886719 141.039062 Z M 90.886719 141.039062 "/>
</g>
</svg>
